<svg xmlns="http://www.w3.org/2000/svg" width="1920" height="1080" viewBox="0 0 1920 1080">
<title>canto_lagoa · Salão Principal · planta ilustrada</title>
<defs><clipPath id="quadro"><rect x="756" y="168" width="408" height="606"/></clipPath><pattern id="acabamento" width="14.95" height="59.80" patternUnits="userSpaceOnUse"><rect width="100%" height="100%" fill="#e6dbc8"/><path d="M0,0V59.80" stroke="#b8a98f" stroke-opacity=".17" stroke-width=".55"/></pattern></defs>
<g clip-path="url(#quadro)"><rect width="1920" height="1080" fill="#eef1ed"/>
<polygon points="848.00,260.00 1072.00,260.00 1072.00,682.00 848.00,682.00" fill="url(#acabamento)" stroke="#c4c9bf" stroke-width="0.81"/>
<path d="M844.29,169.16L844.78,169.12L845.11,168.75L846.14,168.67L846.41,168.26L846.31,167.77L845.60,167.36L843.72,167.46L843.46,168.23L844.29,169.16Z M844.15,259.99L844.87,260.38L845.39,259.75L845.39,170.71L847.55,170.71L847.55,260.30L848.07,260.93L851.00,260.94L851.00,262.55L848.07,262.56L847.55,263.19L847.63,682.08L848.20,682.42L971.50,682.42L971.50,722.50L966.90,722.50L966.90,720.92L967.66,720.84L968.00,720.34L969.00,720.27L969.34,719.70L969.34,685.22L969.15,684.77L968.69,684.58L968.24,684.77L968.05,685.22L968.05,719.06L930.68,719.06L930.10,719.64L930.10,723.15L930.29,723.60L930.74,723.79L946.02,723.79L946.20,724.27L946.66,724.46L948.85,724.43L949.30,723.79L964.60,723.79L965.12,724.45L967.36,724.46L967.82,724.27L968.00,723.79L972.21,723.79L972.76,723.34L972.79,681.77L972.33,681.16L848.84,681.13L848.84,263.84L852.06,263.69L852.29,263.26L852.29,260.94L1012.44,260.94L1012.78,261.44L1013.45,261.52L1013.45,263.77L1012.73,263.88L1012.44,264.41L1012.99,265.12L1012.99,306.24L1012.44,306.92L1012.78,307.49L1013.57,307.56L1013.57,309.84L1012.59,310.07L1012.44,310.55L1012.68,310.98L1013.43,311.36L1014.43,311.34L1014.87,311.03L1015.99,311.11L1016.43,310.79L1016.51,310.02L1068.86,309.79L1068.89,310.67L1069.20,311.05L1071.09,311.13L1071.09,332.25L1070.86,332.75L1070.86,353.88L1071.09,354.38L1071.09,388.10L1070.86,388.59L1070.86,409.73L1071.09,410.22L1071.09,450.73L1070.86,451.22L1070.86,472.47L1071.09,472.96L1071.09,516.28L1070.86,516.77L1070.86,537.91L1071.09,538.40L1071.09,578.79L1070.86,579.28L1071.09,681.13L1065.99,681.13L1065.46,680.70L1064.36,680.68L1063.57,681.30L1063.52,682.90L1012.28,683.13L1012.25,681.36L1011.43,680.67L1010.46,680.70L1009.81,681.13L1003.39,681.14L1002.95,681.47L1002.90,681.96L1003.45,682.41L1006.52,682.42L1006.35,683.29L1006.90,683.75L1008.78,683.70L1009.16,683.23L1008.98,682.42L1009.77,682.42L1009.67,685.23L1010.65,685.98L1011.84,685.83L1012.23,685.35L1012.28,684.62L1040.68,684.62L1041.16,684.42L1063.52,684.42L1063.76,685.60L1064.36,685.97L1065.33,685.98L1066.13,685.23L1066.03,682.42L1129.56,682.42L1141.02,774.08L1141.37,774.58L1141.98,774.56L1142.30,773.92L1130.86,682.42L1131.48,682.08L1131.41,681.36L1130.91,681.13L1072.38,681.13L1072.38,311.36L1074.80,311.10L1075.25,310.55L1075.25,264.53L1075.06,264.07L1074.61,263.88L1073.60,263.93L1073.21,264.53L1073.21,306.29L1072.38,306.07L1072.37,263.13L1071.86,262.56L1068.93,262.55L1068.93,170.71L1071.30,170.71L1071.30,259.75L1071.49,260.20L1071.94,260.39L1072.40,260.20L1072.59,259.75L1072.51,169.76L1072.00,169.43L1068.22,169.43L1067.64,170.00L1067.64,259.45L852.22,259.45L851.65,259.10L851.08,259.45L848.84,259.45L848.84,170.07L848.26,169.43L844.50,169.47L844.10,170.07L844.15,259.99Z M1038.01,262.24L1037.60,262.52L1037.49,263.08L1038.07,263.72L1066.31,263.72L1066.41,264.77L1067.27,265.29L1068.24,265.26L1068.78,264.82L1068.92,264.29L1068.57,263.84L1071.09,263.84L1070.97,308.27L1015.18,308.50L1015.13,306.67L1014.28,306.07L1014.28,265.28L1015.05,264.54L1015.06,260.94L1066.31,260.94L1066.31,262.23L1038.01,262.24Z M1073.19,307.55L1073.21,309.17L1072.70,309.17L1072.70,307.56L1073.19,307.55Z M847.63,749.49L848.20,749.83L937.69,749.83L937.69,751.44L937.02,751.52L936.69,751.99L848.20,751.99L847.74,752.18L847.55,752.63L847.74,753.09L848.20,753.28L957.93,753.39L957.93,774.00L958.12,774.46L958.57,774.64L959.03,774.46L959.22,774.00L959.22,752.63L958.38,751.55L957.54,751.44L957.54,749.83L961.38,749.83L961.38,774.06L962.02,774.64L962.66,774.13L962.56,748.83L962.09,748.54L958.66,748.54L958.02,747.99L955.78,748.00L955.27,748.54L939.96,748.54L939.32,747.99L937.20,748.00L936.69,748.54L931.39,748.54L931.38,747.01L931.10,746.53L927.94,746.42L927.94,731.15L930.81,731.15L931.24,730.92L931.38,728.44L930.87,727.88L929.83,727.97L929.55,728.85L927.94,728.85L927.86,728.20L927.36,727.87L926.40,727.91L926.02,728.38L926.01,748.54L848.84,748.54L848.84,685.22L848.65,684.77L848.20,684.58L847.74,684.77L847.55,685.22L847.63,749.49Z M1006.40,689.64L1006.90,689.98L1008.99,689.79L1009.17,689.34L1008.99,687.20L1008.53,687.02L1006.51,687.20L1006.40,689.64Z M1006.37,695.91L1006.90,696.30L1008.94,696.16L1009.17,695.66L1009.03,693.71L1008.53,693.48L1006.56,693.63L1006.33,694.06L1006.37,695.91Z M1006.37,702.26L1006.90,702.65L1008.94,702.51L1009.17,702.01L1009.03,700.04L1008.53,699.80L1006.56,699.95L1006.33,700.38L1006.37,702.26Z M1006.40,708.78L1006.90,709.12L1008.99,708.93L1009.17,708.48L1008.99,706.34L1008.53,706.15L1006.51,706.34L1006.40,708.78Z M1006.37,715.05L1006.90,715.44L1008.94,715.30L1009.17,714.80L1009.03,712.85L1008.53,712.62L1006.56,712.76L1006.33,713.20L1006.37,715.05Z M1006.40,721.57L1006.90,721.90L1008.99,721.72L1009.17,721.26L1008.99,719.13L1008.53,718.94L1006.51,719.13L1006.40,721.57Z M1006.37,727.86L1006.90,728.25L1008.94,728.11L1009.17,727.61L1009.03,725.52L1008.53,725.29L1006.56,725.43L1006.33,725.87L1006.37,727.86Z M1002.95,774.30L1003.70,774.62L1004.16,774.00L1004.16,684.30L1004.32,774.00L1004.51,774.46L1004.97,774.64L1005.42,774.46L1005.61,774.00L1005.61,683.66L1005.42,683.20L1004.97,683.01L1003.33,683.04L1002.87,683.66L1002.95,774.30Z M1006.37,740.65L1006.90,741.04L1008.94,740.90L1009.17,740.40L1009.03,738.31L1008.53,738.08L1006.56,738.22L1006.33,738.66L1006.37,740.65Z M1006.37,746.99L1006.90,747.39L1008.94,747.24L1009.17,746.75L1009.03,744.66L1008.53,744.42L1006.56,744.57L1006.33,745.00L1006.37,746.99Z M1006.37,753.34L1006.90,753.74L1008.94,753.59L1009.17,753.10L1009.03,751.12L1008.53,750.89L1006.56,751.03L1006.33,751.47L1006.37,753.34Z M1006.40,759.84L1006.90,760.18L1008.99,759.99L1009.17,759.53L1008.99,757.42L1008.53,757.24L1006.51,757.42L1006.40,759.84Z M1006.37,766.13L1006.90,766.52L1008.94,766.38L1009.17,765.88L1009.03,763.91L1008.53,763.67L1006.56,763.82L1006.33,764.26L1006.37,766.13Z M1006.37,772.48L1006.90,772.87L1008.94,772.73L1009.17,772.23L1009.03,770.26L1008.53,770.02L1006.56,770.17L1006.33,770.60L1006.37,772.48Z M1006.40,731.57L1006.65,731.83L1006.33,732.33L1006.33,734.06L1006.97,734.58L1009.03,734.34L1009.17,732.39L1008.95,731.91L1012.83,732.00L1013.62,731.63L1013.73,730.69L1066.08,730.49L1066.13,731.51L1066.59,731.90L1071.16,732.03L1072.09,731.80L1072.38,731.27L1072.27,684.86L1071.86,684.59L1070.94,684.59L1070.43,685.16L1070.42,726.74L1069.37,727.31L1069.30,728.97L1013.61,729.20L1013.50,727.25L1012.83,726.76L1011.87,726.74L1011.11,727.11L1010.88,727.61L1011.16,728.15L1011.89,728.25L1011.89,729.87L1006.78,729.89L1006.33,730.38L1006.40,731.57Z M1137.28,774.20L1138.03,774.63L1138.53,773.92L1127.32,685.14L1127.08,684.71L1126.60,684.58L1126.17,684.83L1126.04,685.30L1137.28,774.20Z" fill="#748378" fill-rule="evenodd" opacity=".16" transform="translate(2.53 2.53)"/>
<path d="M844.29,169.16L844.78,169.12L845.11,168.75L846.14,168.67L846.41,168.26L846.31,167.77L845.60,167.36L843.72,167.46L843.46,168.23L844.29,169.16Z M844.15,259.99L844.87,260.38L845.39,259.75L845.39,170.71L847.55,170.71L847.55,260.30L848.07,260.93L851.00,260.94L851.00,262.55L848.07,262.56L847.55,263.19L847.63,682.08L848.20,682.42L971.50,682.42L971.50,722.50L966.90,722.50L966.90,720.92L967.66,720.84L968.00,720.34L969.00,720.27L969.34,719.70L969.34,685.22L969.15,684.77L968.69,684.58L968.24,684.77L968.05,685.22L968.05,719.06L930.68,719.06L930.10,719.64L930.10,723.15L930.29,723.60L930.74,723.79L946.02,723.79L946.20,724.27L946.66,724.46L948.85,724.43L949.30,723.79L964.60,723.79L965.12,724.45L967.36,724.46L967.82,724.27L968.00,723.79L972.21,723.79L972.76,723.34L972.79,681.77L972.33,681.16L848.84,681.13L848.84,263.84L852.06,263.69L852.29,263.26L852.29,260.94L1012.44,260.94L1012.78,261.44L1013.45,261.52L1013.45,263.77L1012.73,263.88L1012.44,264.41L1012.99,265.12L1012.99,306.24L1012.44,306.92L1012.78,307.49L1013.57,307.56L1013.57,309.84L1012.59,310.07L1012.44,310.55L1012.68,310.98L1013.43,311.36L1014.43,311.34L1014.87,311.03L1015.99,311.11L1016.43,310.79L1016.51,310.02L1068.86,309.79L1068.89,310.67L1069.20,311.05L1071.09,311.13L1071.09,332.25L1070.86,332.75L1070.86,353.88L1071.09,354.38L1071.09,388.10L1070.86,388.59L1070.86,409.73L1071.09,410.22L1071.09,450.73L1070.86,451.22L1070.86,472.47L1071.09,472.96L1071.09,516.28L1070.86,516.77L1070.86,537.91L1071.09,538.40L1071.09,578.79L1070.86,579.28L1071.09,681.13L1065.99,681.13L1065.46,680.70L1064.36,680.68L1063.57,681.30L1063.52,682.90L1012.28,683.13L1012.25,681.36L1011.43,680.67L1010.46,680.70L1009.81,681.13L1003.39,681.14L1002.95,681.47L1002.90,681.96L1003.45,682.41L1006.52,682.42L1006.35,683.29L1006.90,683.75L1008.78,683.70L1009.16,683.23L1008.98,682.42L1009.77,682.42L1009.67,685.23L1010.65,685.98L1011.84,685.83L1012.23,685.35L1012.28,684.62L1040.68,684.62L1041.16,684.42L1063.52,684.42L1063.76,685.60L1064.36,685.97L1065.33,685.98L1066.13,685.23L1066.03,682.42L1129.56,682.42L1141.02,774.08L1141.37,774.58L1141.98,774.56L1142.30,773.92L1130.86,682.42L1131.48,682.08L1131.41,681.36L1130.91,681.13L1072.38,681.13L1072.38,311.36L1074.80,311.10L1075.25,310.55L1075.25,264.53L1075.06,264.07L1074.61,263.88L1073.60,263.93L1073.21,264.53L1073.21,306.29L1072.38,306.07L1072.37,263.13L1071.86,262.56L1068.93,262.55L1068.93,170.71L1071.30,170.71L1071.30,259.75L1071.49,260.20L1071.94,260.39L1072.40,260.20L1072.59,259.75L1072.51,169.76L1072.00,169.43L1068.22,169.43L1067.64,170.00L1067.64,259.45L852.22,259.45L851.65,259.10L851.08,259.45L848.84,259.45L848.84,170.07L848.26,169.43L844.50,169.47L844.10,170.07L844.15,259.99Z M1038.01,262.24L1037.60,262.52L1037.49,263.08L1038.07,263.72L1066.31,263.72L1066.41,264.77L1067.27,265.29L1068.24,265.26L1068.78,264.82L1068.92,264.29L1068.57,263.84L1071.09,263.84L1070.97,308.27L1015.18,308.50L1015.13,306.67L1014.28,306.07L1014.28,265.28L1015.05,264.54L1015.06,260.94L1066.31,260.94L1066.31,262.23L1038.01,262.24Z M1073.19,307.55L1073.21,309.17L1072.70,309.17L1072.70,307.56L1073.19,307.55Z M847.63,749.49L848.20,749.83L937.69,749.83L937.69,751.44L937.02,751.52L936.69,751.99L848.20,751.99L847.74,752.18L847.55,752.63L847.74,753.09L848.20,753.28L957.93,753.39L957.93,774.00L958.12,774.46L958.57,774.64L959.03,774.46L959.22,774.00L959.22,752.63L958.38,751.55L957.54,751.44L957.54,749.83L961.38,749.83L961.38,774.06L962.02,774.64L962.66,774.13L962.56,748.83L962.09,748.54L958.66,748.54L958.02,747.99L955.78,748.00L955.27,748.54L939.96,748.54L939.32,747.99L937.20,748.00L936.69,748.54L931.39,748.54L931.38,747.01L931.10,746.53L927.94,746.42L927.94,731.15L930.81,731.15L931.24,730.92L931.38,728.44L930.87,727.88L929.83,727.97L929.55,728.85L927.94,728.85L927.86,728.20L927.36,727.87L926.40,727.91L926.02,728.38L926.01,748.54L848.84,748.54L848.84,685.22L848.65,684.77L848.20,684.58L847.74,684.77L847.55,685.22L847.63,749.49Z M1006.40,689.64L1006.90,689.98L1008.99,689.79L1009.17,689.34L1008.99,687.20L1008.53,687.02L1006.51,687.20L1006.40,689.64Z M1006.37,695.91L1006.90,696.30L1008.94,696.16L1009.17,695.66L1009.03,693.71L1008.53,693.48L1006.56,693.63L1006.33,694.06L1006.37,695.91Z M1006.37,702.26L1006.90,702.65L1008.94,702.51L1009.17,702.01L1009.03,700.04L1008.53,699.80L1006.56,699.95L1006.33,700.38L1006.37,702.26Z M1006.40,708.78L1006.90,709.12L1008.99,708.93L1009.17,708.48L1008.99,706.34L1008.53,706.15L1006.51,706.34L1006.40,708.78Z M1006.37,715.05L1006.90,715.44L1008.94,715.30L1009.17,714.80L1009.03,712.85L1008.53,712.62L1006.56,712.76L1006.33,713.20L1006.37,715.05Z M1006.40,721.57L1006.90,721.90L1008.99,721.72L1009.17,721.26L1008.99,719.13L1008.53,718.94L1006.51,719.13L1006.40,721.57Z M1006.37,727.86L1006.90,728.25L1008.94,728.11L1009.17,727.61L1009.03,725.52L1008.53,725.29L1006.56,725.43L1006.33,725.87L1006.37,727.86Z M1002.95,774.30L1003.70,774.62L1004.16,774.00L1004.16,684.30L1004.32,774.00L1004.51,774.46L1004.97,774.64L1005.42,774.46L1005.61,774.00L1005.61,683.66L1005.42,683.20L1004.97,683.01L1003.33,683.04L1002.87,683.66L1002.95,774.30Z M1006.37,740.65L1006.90,741.04L1008.94,740.90L1009.17,740.40L1009.03,738.31L1008.53,738.08L1006.56,738.22L1006.33,738.66L1006.37,740.65Z M1006.37,746.99L1006.90,747.39L1008.94,747.24L1009.17,746.75L1009.03,744.66L1008.53,744.42L1006.56,744.57L1006.33,745.00L1006.37,746.99Z M1006.37,753.34L1006.90,753.74L1008.94,753.59L1009.17,753.10L1009.03,751.12L1008.53,750.89L1006.56,751.03L1006.33,751.47L1006.37,753.34Z M1006.40,759.84L1006.90,760.18L1008.99,759.99L1009.17,759.53L1008.99,757.42L1008.53,757.24L1006.51,757.42L1006.40,759.84Z M1006.37,766.13L1006.90,766.52L1008.94,766.38L1009.17,765.88L1009.03,763.91L1008.53,763.67L1006.56,763.82L1006.33,764.26L1006.37,766.13Z M1006.37,772.48L1006.90,772.87L1008.94,772.73L1009.17,772.23L1009.03,770.26L1008.53,770.02L1006.56,770.17L1006.33,770.60L1006.37,772.48Z M1006.40,731.57L1006.65,731.83L1006.33,732.33L1006.33,734.06L1006.97,734.58L1009.03,734.34L1009.17,732.39L1008.95,731.91L1012.83,732.00L1013.62,731.63L1013.73,730.69L1066.08,730.49L1066.13,731.51L1066.59,731.90L1071.16,732.03L1072.09,731.80L1072.38,731.27L1072.27,684.86L1071.86,684.59L1070.94,684.59L1070.43,685.16L1070.42,726.74L1069.37,727.31L1069.30,728.97L1013.61,729.20L1013.50,727.25L1012.83,726.76L1011.87,726.74L1011.11,727.11L1010.88,727.61L1011.16,728.15L1011.89,728.25L1011.89,729.87L1006.78,729.89L1006.33,730.38L1006.40,731.57Z M1137.28,774.20L1138.03,774.63L1138.53,773.92L1127.32,685.14L1127.08,684.71L1126.60,684.58L1126.17,684.83L1126.04,685.30L1137.28,774.20Z" fill="#66766c" fill-rule="evenodd" stroke="#475b51" stroke-width="0.58" stroke-linejoin="round"/>
</g></svg>